HIERARCHY
ROOT Hips
{
  OFFSET 13.6774 106.653 -34.4427
  CHANNELS 6 Xposition Yposition Zposition Zrotation Xrotation Yrotation
  JOINT ToSpine
  {
    OFFSET -2.69724 7.43032 -0.144315
    CHANNELS 3 Zrotation Xrotation Yrotation
    JOINT Spine
    {
      OFFSET -0.0310711 10.7595 1.96963
      CHANNELS 3 Zrotation Xrotation Yrotation
      JOINT Spine1
      {
        OFFSET 19.9056 3.91189 0.764692
        CHANNELS 3 Zrotation Xrotation Yrotation
        JOINT Neck
        {
          OFFSET 25.9749 7.03908 -0.130764
          CHANNELS 3 Zrotation Xrotation Yrotation
          JOINT Head
          {
            OFFSET 9.52751 0.295786 -0.907742
            CHANNELS 3 Zrotation Xrotation Yrotation
            End Site
            {
              OFFSET 16.4037 0.713936 2.7358
            }
          }
        }
        JOINT LeftShoulder
        {
          OFFSET 17.7449 4.33886 11.7777
          CHANNELS 3 Zrotation Xrotation Yrotation
          JOINT LeftArm
          {
            OFFSET 0.911315 1.27913 9.80584
            CHANNELS 3 Zrotation Xrotation Yrotation
            JOINT LeftForeArm
            {
              OFFSET 28.6126 1.18197 -3.53199
              CHANNELS 3 Zrotation Xrotation Yrotation
              JOINT LeftHand
              {
                OFFSET 27.5088 0.0218783 0.327423
                CHANNELS 3 Zrotation Xrotation Yrotation
                End Site
                {
                  OFFSET 18.6038 -0.000155887 0.382096
                }
              }
            }
          }
        }
        JOINT RightShoulder
        {
          OFFSET 17.1009 2.89543 -12.2328
          CHANNELS 3 Zrotation Xrotation Yrotation
          JOINT RightArm
          {
            OFFSET 1.4228 0.178766 -10.211
            CHANNELS 3 Zrotation Xrotation Yrotation
            JOINT RightForeArm
            {
              OFFSET 28.733 1.87905 2.64907
              CHANNELS 3 Zrotation Xrotation Yrotation
              JOINT RightHand
              {
                OFFSET 27.4588 0.290562 -0.101845
                CHANNELS 3 Zrotation Xrotation Yrotation
                End Site
                {
                  OFFSET 17.8396 -0.255518 -0.000602873
                }
              }
            }
          }
        }
      }
    }
  }
  JOINT LeftUpLeg
  {
    OFFSET -5.61296 -2.22332 -10.2353
    CHANNELS 3 Zrotation Xrotation Yrotation
    JOINT LeftLeg
    {
      OFFSET 2.56703 -44.7417 -7.93097
      CHANNELS 3 Zrotation Xrotation Yrotation
      JOINT LeftFoot
      {
        OFFSET 3.16933 -46.5642 -3.96578
        CHANNELS 3 Zrotation Xrotation Yrotation
        JOINT LeftToeBase
        {
          OFFSET 0.346054 -6.02161 12.8035
          CHANNELS 3 Zrotation Xrotation Yrotation
          End Site
          {
            OFFSET 0.134235 -1.35082 5.13018
          }
        }
      }
    }
  }
  JOINT RightUpLeg
  {
    OFFSET -5.7928 -1.72406 10.6446
    CHANNELS 3 Zrotation Xrotation Yrotation
    JOINT RightLeg
    {
      OFFSET -2.57161 -44.7178 -7.85259
      CHANNELS 3 Zrotation Xrotation Yrotation
      JOINT RightFoot
      {
        OFFSET -3.10148 -46.5936 -4.03391
        CHANNELS 3 Zrotation Xrotation Yrotation
        JOINT RightToeBase
        {
          OFFSET -0.0828122 -6.13587 12.8035
          CHANNELS 3 Zrotation Xrotation Yrotation
          End Site
          {
            OFFSET -0.131328 -1.35082 5.13018
          }
        }
      }
    }
  }
}
MOTION
Frames:	13
Frame Time:	0.0333333
13.6653 106.685 -34.2172 -5.63641 -71.8545 -95.0052 -70.1915 0 88.8779 62.1586 69.2427 22.2372 5.96825 19.0255 6.37525 -150.291 21.1193 176.098 -163.439 60.5096 -174.866 2.55503 -2.37731 -32.3426 -104.152 50.6314 -90.632 -17.1186 51.6158 12.0422 10.0607 -0.703492 -6.10608 0.646576 -2.09883 44.7788 -85.5555 -35.9695 91.5527 -6.5549 -17.0566 7.55529 15.5878 0.028334 -0.15186 -58.3355 -0.973316 95.6992 2.53043 17.3374 -0.586912 4.36456 -3.16644 -0.747004 -1.97672 -4.51903 2.86016 -59.9066 5.81827 83.4352 -1.5491 17.0043 2.13418 -4.42889 -3.55316 0.822805 -0.0273048 -0.871444 -1.07255 
13.6558 106.685 -34.1923 -5.33004 -71.8075 -94.7879 -70.1915 0 88.8779 61.6647 69.1881 22.4401 5.96476 18.9544 6.63873 -150.243 21.132 176.351 -163.965 60.546 -174.303 2.56451 -2.3418 -32.3762 -104.357 50.6798 -90.4701 -17.0503 51.6706 12.0574 9.8348 -0.670281 -5.91275 0.648379 -2.10412 44.7943 -85.6025 -35.9407 91.4572 -6.50378 -16.6606 7.69196 15.8044 -0.0272584 -0.540942 -58.2947 -1.11338 95.6324 2.56058 17.3294 -0.589208 4.36552 -3.0575 -0.743324 -2.05604 -4.71274 2.99267 -59.9123 5.7451 83.457 -1.58736 16.9287 2.15541 -4.54213 -3.57447 0.833658 -0.0336935 -0.985649 -1.1899 
13.6444 106.662 -34.1839 -5.14114 -71.8291 -94.6807 -70.1915 0 88.8779 62.085 69.2124 21.7681 5.63167 18.8114 6.91391 -150.068 21.0416 176.452 -163.392 60.4091 -174.634 2.61429 -2.16969 -32.584 -103.98 50.454 -90.5512 -17.126 51.279 11.952 9.46835 -0.65526 -6.02126 0.628342 -2.0419 44.7046 -84.5226 -36.1212 92.0003 -6.61624 -14.3614 8.20695 16.8382 -0.279099 -2.33467 -58.2406 -1.18212 95.6529 2.55021 17.485 -0.674181 4.19501 -2.96761 -0.724124 -2.15306 -4.94598 3.20737 -59.9984 5.61693 83.4138 -1.52028 16.8367 2.30906 -5.07006 -3.53977 0.880786 -0.0636369 -1.22449 -1.31501 
13.656 106.696 -34.1903 -4.81748 -71.8409 -94.2098 -70.1915 0 88.8779 62.3745 69.1783 21.6117 5.68774 18.747 6.93164 -150.3 21.1659 176.106 -161.648 60.4274 -176.058 2.62838 -2.14294 -32.7043 -103.754 50.3806 -90.7786 -16.9137 50.1518 11.6633 9.53264 -0.61324 -5.48578 0.629508 -2.04549 44.7113 -84.105 -36.0702 92.1762 -6.59764 -13.9723 8.37312 16.8665 -0.257928 -2.17151 -58.2263 -1.09168 95.6286 2.60954 17.502 -0.88676 4.1438 -2.98443 -0.719846 -2.04965 -4.644 3.39078 -59.9524 5.73153 83.3708 -1.46257 16.8566 1.88739 -4.96938 -3.20194 0.862125 -0.175012 -1.6681 -1.10251 
13.6667 106.654 -34.1811 -4.93931 -71.8299 -94.4227 -70.1915 0 88.8779 62.1863 69.171 21.8288 5.81083 18.7989 6.77913 -150.375 21.1812 175.896 -160.762 60.3818 -176.764 2.63055 -2.11441 -32.6531 -103.848 50.4667 -90.6369 -16.8571 50.1093 11.653 9.48986 -0.619298 -5.58752 0.640837 -2.08589 44.64 -83.6004 -36.1539 92.5646 -6.75752 -13.1259 8.43563 17.1377 -0.258437 -2.14532 -58.2087 -1.1645 95.6347 2.58104 17.5247 -0.679457 4.43633 -3.04942 -0.749775 -2.1136 -4.85192 3.10897 -60.0476 5.65686 83.4309 -1.5207 16.7485 2.18539 -5.0786 -3.6401 0.88442 -0.0316408 -0.967264 -1.17889 
13.6801 106.642 -34.1335 -5.11809 -71.634 -94.4949 -70.1915 0 88.8779 61.4268 69.014 22.9695 6.0843 18.8586 6.51014 -150.402 21.2219 175.862 -160.752 60.4214 -176.843 2.63494 -2.16313 -32.8539 -103.706 50.2366 -90.7783 -16.9446 50.2644 11.6912 9.21232 -0.616324 -5.76726 0.639059 -2.08676 44.4822 -84.1287 -36.2484 92.2163 -6.54707 -14.3605 8.35472 16.4011 -0.255097 -2.20468 -57.897 -1.03586 95.6672 2.60768 17.8091 -0.733175 4.20504 -3.18136 -0.732661 -2.08719 -4.76497 3.23556 -59.9601 5.81739 83.5705 -1.53608 16.5893 2.14525 -5.03144 -3.64172 0.880124 -0.00384874 -0.873908 -1.25487 
13.6897 106.65 -34.1284 -5.06049 -71.6136 -94.4316 -70.1915 0 88.8779 61.3423 69.0108 23.1075 6.11039 18.8777 6.49728 -150.109 21.2065 175.718 -160.296 60.387 -176.856 2.62597 -2.17144 -32.7525 -103.934 50.3729 -90.5501 -16.9671 50.6014 11.7763 8.94429 -0.627605 -6.11901 0.64138 -2.09462 44.4793 -84.5888 -36.2768 91.9404 -6.52514 -14.7007 8.24918 16.4248 -0.243976 -2.12089 -57.863 -1.05218 95.6453 2.62504 17.8249 -0.658724 4.11432 -3.16347 -0.723618 -2.07651 -4.77612 2.92656 -59.954 5.85669 83.6168 -1.59339 16.5371 2.0571 -4.91343 -3.54949 0.866875 -0.021915 -0.9556 -1.23596 
13.6924 106.643 -34.1326 -5.08806 -71.6667 -94.4857 -70.1915 0 88.8779 61.692 69.0647 22.6961 5.98952 18.8393 6.61197 -150.527 21.3488 176.127 -161.038 60.5617 -176.585 2.64698 -2.10551 -32.8553 -104.079 50.3238 -90.4558 -16.9391 50.6888 11.7987 9.0524 -0.643125 -6.21845 0.633908 -2.07986 44.2436 -84.5018 -36.4929 91.9853 -6.53971 -14.4609 8.29365 16.2535 -0.245087 -2.16168 -57.9788 -1.07258 95.6571 2.59381 17.7103 -0.678714 4.45171 -3.15661 -0.754769 -2.15922 -4.98517 3.02108 -59.9778 5.79174 83.5685 -1.56471 16.61 2.11404 -4.94845 -3.7255 0.875039 0.0202434 -0.63634 -1.09478 
13.6825 106.636 -34.1122 -4.83499 -71.6348 -94.1744 -70.1915 0 88.8779 61.4558 68.9855 22.9515 6.08497 18.7939 6.62758 -150.363 21.2317 176.017 -160.794 60.4289 -176.714 2.64477 -2.14977 -32.9521 -104.06 50.1944 -90.4782 -16.9808 50.7682 11.819 8.91483 -0.644495 -6.3534 0.630095 -2.06666 44.2548 -84.6891 -36.5072 91.8964 -6.56121 -14.6477 8.2028 16.516 -0.248187 -2.17816 -57.8572 -0.991253 95.7092 2.57124 17.8866 -0.898208 4.3961 -3.20124 -0.751111 -2.1336 -4.86547 3.42971 -60.0309 5.84568 83.576 -1.52664 16.4482 1.94184 -5.11303 -3.66287 0.888095 -0.00658619 -0.759385 -1.0678 
13.6848 106.641 -34.1151 -5.01969 -71.6842 -94.3771 -70.1915 0 88.8779 61.4802 69.0376 22.9267 6.16516 18.8391 6.61563 -150.242 21.1421 175.91 -160.564 60.3324 -176.693 2.6386 -2.15852 -32.8914 -103.95 50.2482 -90.5211 -17.0165 50.6979 11.8008 8.8134 -0.65332 -6.55125 0.636185 -2.08571 44.2852 -84.5324 -36.4533 92.0478 -6.57228 -14.647 8.21101 16.568 -0.251708 -2.13088 -57.9461 -1.01947 95.696 2.5949 17.8123 -0.713846 4.35373 -3.1945 -0.74695 -2.12149 -4.90839 2.82476 -60.052 5.81807 83.5519 -1.52013 16.5262 2.13862 -5.06138 -3.57815 0.881141 -0.0223457 -0.947939 -1.22213 
13.6884 106.65 -34.1157 -5.07342 -71.6833 -94.3972 -70.1915 0 88.8779 61.777 69.0354 22.6572 6.08201 18.7894 6.61435 -150.647 21.2904 176.085 -160.941 60.4918 -176.808 2.65688 -2.06579 -32.8788 -104.267 50.2922 -90.2596 -16.9146 50.8271 11.8344 8.67475 -0.622931 -6.29888 0.628777 -2.06184 44.265 -84.6282 -36.548 91.9721 -6.49771 -14.6046 8.31107 16.4159 -0.251059 -2.17281 -57.9239 -0.961914 95.7333 2.58622 17.8542 -0.752787 4.30299 -3.20662 -0.742669 -2.07689 -4.77522 2.94025 -60.0681 5.86249 83.5804 -1.53309 16.4973 2.11269 -4.94933 -3.64389 0.87279 0.0216247 -0.70589 -1.20444 
13.6739 106.655 -34.1161 -5.02332 -71.6873 -94.3833 -70.1915 0 88.8779 61.6137 69.0508 22.7216 6.11146 18.8105 6.66094 -150.569 21.2852 176.054 -161.115 60.5077 -176.558 2.64066 -2.08811 -32.7185 -104.185 50.439 -90.3102 -16.9071 50.65 11.7889 9.19122 -0.640511 -6.07011 0.638385 -2.09033 44.3479 -84.6091 -36.4827 91.9884 -6.4992 -14.7391 8.2739 16.4882 -0.243709 -2.09971 -57.9052 -1.00332 95.7079 2.60663 17.8992 -0.71563 4.14424 -3.20128 -0.727787 -2.06339 -4.75396 2.82545 -60.0895 5.82942 83.5694 -1.53277 16.4548 2.06982 -4.95629 -3.67468 0.874293 0.0241723 -0.69678 -1.21036 
13.673 106.656 -34.1163 -5.11227 -71.68 -94.4576 -70.1915 0 88.8779 61.5522 69.0514 22.8112 6.11358 18.8221 6.71054 -150.418 21.2602 176.077 -161.033 60.4776 -176.485 2.64047 -2.12169 -32.8117 -104.139 50.3656 -90.3346 -16.8905 50.5344 11.7595 9.43134 -0.650012 -5.98926 0.629286 -2.06405 44.2523 -84.7681 -36.6151 91.8442 -6.46162 -14.7584 8.29996 16.4997 -0.239817 -2.08481 -58.0153 -0.995058 95.6824 2.59469 17.6856 -0.669851 4.3893 -3.16486 -0.74925 -2.13605 -4.93664 2.91092 -59.9898 5.81882 83.5271 -1.51415 16.6477 2.18792 -4.79623 -3.64398 0.858994 0.00963965 -0.82341 -1.28422 
